<svg width="30" height="20" viewBox="0 0 30 20" xmlns="http://www.w3.org/2000/svg">
  <title>
    icon
  </title>
  <g fill="#85BB65" fill-rule="evenodd">
    <path d="M.3 7.54c-.15 1.35-.338 5.55 1.5 12.076.75-.188 1.538-.375 2.326-.526.075-5.213.75-9.188 1.537-12.076L.3 7.54zM13.39 6.263c.187-.412.412-.787.6-1.125.262-.487.525-.937.787-1.35L9 1.988c-.3.562-.86 1.725-1.46 3.45-.076.225-.15.45-.226.713-.075.226-.15.45-.188.714-.788 2.775-1.538 6.75-1.688 11.926 1.126-.187 2.25-.3 3.413-.412 1.09-4.126 2.327-7.5 3.602-10.202.3-.675.6-1.312.938-1.913zM19.128.263c-.45.45-1.238 1.312-2.213 2.737-.112.188-.262.376-.412.6-.113.188-.263.376-.375.6-.75 1.2-1.576 2.626-2.4 4.39-.263.524-.526 1.124-.75 1.724-.226.525-.45 1.088-.676 1.65-.713 1.876-1.425 4.013-2.063 6.376.974-.037 1.912-.037 2.887-.037.225 0 .488.037.713.037.225 0 .487.038.712.038.675.037 1.313.112 1.988.187.225.038.45.075.675.075l.675.113c1.163.187 2.326.412 3.45.675 1.164-2.963 3.75-8.4 8.177-12.49L19.127.264z"/>
  </g>
</svg>
